<svg xmlns="http://www.w3.org/2000/svg" xmlns:xlink="http://www.w3.org/1999/xlink" viewBox="0 0 32 32" fill="#FFFFFF">
  <path d="M16 4C12.773438 4 9.972656 6.257813 9.21875 9.34375C7.972656 9.828125 6.9375 10.8125 6.40625 12.03125C2.910156 11.773438 0 14.554688 0 18C0 21.308594 2.691406 24 6 24L8 24L9 22L6 22C3.792969 22 2 20.207031 2 18C2 15.792969 3.792969 14 6 14C6.277344 14 6.558594 14.023438 6.875 14.09375L7.875 14.3125L8.0625 13.34375C8.308594 12.238281 9.207031 11.359375 10.3125 11.09375L10.96875 10.9375L11.0625 10.28125C11.421875 7.847656 13.542969 6 16 6C17.894531 6 19.613281 7.054688 20.46875 8.75L20.84375 9.53125L21.6875 9.25C22.15625 9.085938 22.582031 9 23 9C25.207031 9 27 10.792969 27 13C27 13.039063 27.003906 13.089844 27 13.125C26.992188 13.191406 26.976563 13.242188 26.96875 13.3125L26.90625 14.03125L27.5625 14.3125C29.039063 14.941406 30 16.394531 30 18C30 20.207031 28.207031 22 26 22L24 22L25 24L26 24C29.308594 24 32 21.308594 32 18C32 15.835938 30.84375 13.875 29 12.8125C28.894531 9.59375 26.242188 7 23 7C22.609375 7 22.207031 7.039063 21.8125 7.125C20.523438 5.179688 18.371094 4 16 4 Z M 18 14C18 14 16 16.894531 16 18C16 19.105469 16.894531 20 18 20C19.105469 20 20 19.105469 20 18C20 16.894531 18 14 18 14 Z M 13 19C13 19 11 21.894531 11 23C11 24.105469 11.894531 25 13 25C14.105469 25 15 24.105469 15 23C15 21.894531 13 19 13 19 Z M 21 22C21 22 19 24.894531 19 26C19 27.105469 19.894531 28 21 28C22.105469 28 23 27.105469 23 26C23 24.894531 21 22 21 22Z" fill="#FFFFFF" />
</svg>